<?xml version="1.0" encoding="UTF-8"?>
<!DOCTYPE svg PUBLIC "-//W3C//DTD SVG 1.1//EN" "http://www.w3.org/Graphics/SVG/1.1/DTD/svg11.dtd">
<svg xmlns="http://www.w3.org/2000/svg" version="1.1" width="871px" height="878px" style="shape-rendering:geometricPrecision; text-rendering:geometricPrecision; image-rendering:optimizeQuality; fill-rule:evenodd; clip-rule:evenodd" xmlns:xlink="http://www.w3.org/1999/xlink">
<g><path style="opacity:1" fill="#059445" d="M 846.5,321.5 C 846.41,324.152 847.076,326.485 848.5,328.5C 880.789,461.883 856.956,584.217 777,695.5C 682.338,814.556 558.504,871.056 405.5,865C 326.219,859.19 254.219,833.69 189.5,788.5C 189.027,787.094 188.027,786.427 186.5,786.5C 93.2088,719.022 35.3755,628.355 13,514.5C -4.56537,411.557 12.1013,314.557 63,223.5C 69.3602,212.758 76.1935,202.425 83.5,192.5C 84.9063,192.027 85.573,191.027 85.5,189.5C 98.324,171.001 112.657,153.668 128.5,137.5C 131.427,136.243 133.761,134.243 135.5,131.5C 170.371,96.5423 210.371,68.7089 255.5,48C 268.521,41.988 281.854,36.8214 295.5,32.5C 299.162,32.2766 302.495,31.2766 305.5,29.5C 421.018,-5.64805 532.351,4.85195 639.5,61C 743.859,119.548 812.859,206.381 846.5,321.5 Z"/></g>
<g><path style="opacity:1" fill="#6fbd8a" d="M 305.5,29.5 C 302.495,31.2766 299.162,32.2766 295.5,32.5C 298.505,30.7234 301.838,29.7234 305.5,29.5 Z"/></g>
<g><path style="opacity:1" fill="#fcfdfd" d="M 423.5,116.5 C 421.727,113.512 421.06,110.179 421.5,106.5C 421.74,93.476 422.407,80.476 423.5,67.5C 429.804,68.2597 436.137,68.593 442.5,68.5C 442.391,74.916 441.891,81.2494 441,87.5C 445.5,81.6667 450,75.8333 454.5,70C 459.818,69.978 465.151,70.1447 470.5,70.5C 469.713,86.8859 468.379,103.219 466.5,119.5C 460.54,118.614 454.54,117.947 448.5,117.5C 448.544,111.788 448.711,106.121 449,100.5C 444.454,105.377 440.287,110.544 436.5,116C 432.179,116.499 427.846,116.666 423.5,116.5 Z"/></g>
<g><path style="opacity:1" fill="#fbfdfc" d="M 378.5,70.5 C 382.555,70.1758 386.555,70.5091 390.5,71.5C 398.469,86.4394 406.136,101.439 413.5,116.5C 408.177,117.165 402.843,117.832 397.5,118.5C 396.167,118.167 394.833,117.833 393.5,117.5C 388.77,108.709 384.603,99.7091 381,90.5C 380.233,101.044 378.399,111.377 375.5,121.5C 369.157,122.085 362.824,122.751 356.5,123.5C 359.858,107.067 363.691,90.7339 368,74.5C 368.5,73.3333 369.333,72.5 370.5,72C 373.365,71.8171 376.031,71.3171 378.5,70.5 Z"/></g>
<g><path style="opacity:1" fill="#fbfdfc" d="M 485.5,72.5 C 492.051,73.5404 498.384,75.207 504.5,77.5C 502.974,82.3064 501.641,87.1397 500.5,92C 503.298,93.3962 506.298,94.2295 509.5,94.5C 510.5,89.1667 511.5,83.8333 512.5,78.5C 518.454,80.0401 524.454,81.3734 530.5,82.5C 527.166,98.5011 523.833,114.501 520.5,130.5C 514.73,129.641 509.063,128.308 503.5,126.5C 503.167,125.5 502.833,124.5 502.5,123.5C 503.608,119.184 504.608,114.851 505.5,110.5C 503.389,109.051 501.056,108.051 498.5,107.5C 497.914,107.709 497.414,108.043 497,108.5C 495.92,113.899 494.587,119.232 493,124.5C 487.884,122.928 482.718,121.428 477.5,120C 476.572,119.612 475.905,118.945 475.5,118C 479.027,102.864 482.36,87.6974 485.5,72.5 Z"/></g>
<g><path style="opacity:1" fill="#fbfdfc" d="M 315.5,84.5 C 318.614,85.0913 321.114,86.758 323,89.5C 331.958,100.794 341.291,111.794 351,122.5C 351.483,123.448 351.649,124.448 351.5,125.5C 345.169,126.999 339.003,128.999 333,131.5C 331.561,129.552 329.728,128.219 327.5,127.5C 323.803,128.566 320.136,129.732 316.5,131C 315.004,133.201 314.004,135.701 313.5,138.5C 307.833,140.5 302.167,142.5 296.5,144.5C 296.167,143.667 295.833,142.833 295.5,142C 296.253,125.172 297.086,108.339 298,91.5C 304.036,89.4379 309.869,87.1046 315.5,84.5 Z"/></g>
<g><path style="opacity:1" fill="#fcfdfd" d="M 553.5,94.5 C 577.257,93.087 587.757,104.087 585,127.5C 579.767,124.48 574.267,122.146 568.5,120.5C 567.279,113.388 563.279,111.221 556.5,114C 552.125,119.121 552.791,123.455 558.5,127C 561.466,127.895 564.133,127.395 566.5,125.5C 571.741,127.705 576.908,130.038 582,132.5C 579.411,139.603 574.245,144.103 566.5,146C 543.52,147.353 533.02,136.519 535,113.5C 538.713,104.622 544.88,98.2888 553.5,94.5 Z"/></g>
<g><path style="opacity:1" fill="#fbfdfc" d="M 262.5,106.5 C 263.805,108.397 264.471,110.731 264.5,113.5C 263.497,120.518 263.497,127.518 264.5,134.5C 272.628,138.8 280.628,143.3 288.5,148C 282.664,151.752 276.664,155.252 270.5,158.5C 266.079,156.208 261.912,153.541 258,150.5C 258.608,155.83 258.441,161.163 257.5,166.5C 252.167,169.5 246.833,172.5 241.5,175.5C 241.644,166.213 241.311,156.879 240.5,147.5C 232.687,143.501 225.02,139.334 217.5,135C 223.03,130.403 229.03,126.57 235.5,123.5C 240.119,124.808 244.119,127.141 247.5,130.5C 247.683,125.572 247.85,120.572 248,115.5C 252.981,112.6 257.815,109.6 262.5,106.5 Z"/></g>
<g><path style="opacity:1" fill="#2da058" d="M 314.5,107.5 C 316.601,110.179 318.601,113.012 320.5,116C 318.833,116.833 317.167,117.667 315.5,118.5C 314.511,114.893 314.177,111.226 314.5,107.5 Z"/></g>
<g><path style="opacity:1" fill="#76c599" d="M 421.5,106.5 C 421.06,110.179 421.727,113.512 423.5,116.5C 422.5,116.5 421.5,116.5 420.5,116.5C 420.187,112.958 420.521,109.625 421.5,106.5 Z"/></g>
<g><path style="opacity:1" fill="#fbfdfc" d="M 608.5,113.5 C 613.691,117.262 618.691,121.262 623.5,125.5C 620.957,129.421 618.29,133.254 615.5,137C 620.363,134.911 625.363,132.745 630.5,130.5C 636.463,133.484 642.13,136.984 647.5,141C 639.135,144.519 630.801,148.019 622.5,151.5C 622.779,161.511 622.946,171.511 623,181.5C 617.414,177.957 611.914,174.291 606.5,170.5C 605.671,165.198 605.171,159.864 605,154.5C 602.732,158.051 600.232,161.384 597.5,164.5C 592.362,161.195 587.362,157.695 582.5,154C 591.562,140.698 600.229,127.198 608.5,113.5 Z"/></g>
<g><path style="opacity:1" fill="#7ac394" d="M 135.5,131.5 C 133.761,134.243 131.427,136.243 128.5,137.5C 130.239,134.757 132.573,132.757 135.5,131.5 Z"/></g>
<g><path style="opacity:1" fill="#fcfdfd" d="M 660.5,150.5 C 665.593,154.088 670.26,158.255 674.5,163C 670.833,168 666.5,172.333 661.5,176C 668.877,175.014 676.21,173.514 683.5,171.5C 687.5,174.833 691.167,178.5 694.5,182.5C 683.838,194.495 672.838,206.162 661.5,217.5C 657.015,213.515 652.682,209.349 648.5,205C 652.533,200.632 656.866,196.632 661.5,193C 653.826,194.002 646.159,195.002 638.5,196C 635.167,192.667 631.833,189.333 628.5,186C 639.004,173.997 649.67,162.164 660.5,150.5 Z"/></g>
<g><path style="opacity:1" fill="#fefefe" d="M 409.5,153.5 C 524.187,147.926 613.021,192.592 676,287.5C 727.863,378.169 730.863,470.503 685,564.5C 642.817,640.975 578.984,689.142 493.5,709C 398.073,727.845 314.406,704.845 242.5,640C 172.438,569.815 144.272,485.315 158,386.5C 175.12,299.708 221.62,233.875 297.5,189C 332.545,169.594 369.878,157.761 409.5,153.5 Z"/></g>
<g><path style="opacity:1" fill="#fcfdfd" d="M 189.5,155.5 C 205.582,162.708 221.249,170.708 236.5,179.5C 232.149,184.685 227.316,189.351 222,193.5C 220.333,192.5 218.667,191.5 217,190.5C 212.686,193.647 208.852,197.314 205.5,201.5C 206.074,203.059 206.74,204.559 207.5,206C 203.167,210.333 198.833,214.667 194.5,219C 193.552,219.483 192.552,219.649 191.5,219.5C 186.14,203.256 180.474,187.089 174.5,171C 179.636,166.03 184.636,160.863 189.5,155.5 Z"/></g>
<g><path style="opacity:1" fill="#2a9f58" d="M 195.5,177.5 C 198.621,179.448 201.621,181.615 204.5,184C 203.5,185 202.5,186 201.5,187C 200.668,187.688 200.002,187.521 199.5,186.5C 197.88,183.596 196.547,180.596 195.5,177.5 Z"/></g>
<g><path style="opacity:1" fill="#8ccca4" d="M 85.5,189.5 C 85.573,191.027 84.9063,192.027 83.5,192.5C 83.427,190.973 84.0937,189.973 85.5,189.5 Z"/></g>
<g><path style="opacity:1" fill="#fbfdfc" d="M 704.5,218.5 C 703.711,218.783 703.044,219.283 702.5,220C 706.027,220.808 709.36,220.641 712.5,219.5C 716.846,219.334 721.179,219.501 725.5,220C 728.621,223.743 731.621,227.576 734.5,231.5C 721.796,241.61 708.963,251.61 696,261.5C 692.167,256.5 688.333,251.5 684.5,246.5C 688.61,242.604 693.277,239.437 698.5,237C 691.167,236.667 683.833,236.333 676.5,236C 673.743,231.821 670.743,227.821 667.5,224C 680.423,214.288 693.257,204.455 706,194.5C 710.194,199.06 714.028,203.894 717.5,209C 713.569,212.771 709.236,215.938 704.5,218.5 Z"/></g>
<g><path style="opacity:1" fill="#f7fcf9" d="M 724.5,197.5 C 725.822,197.33 726.989,197.663 728,198.5C 731.716,204.104 735.549,209.604 739.5,215C 736.958,218.041 733.958,220.541 730.5,222.5C 725.957,216.461 721.624,210.295 717.5,204C 719.708,201.622 722.042,199.456 724.5,197.5 Z"/></g>
<g><path style="opacity:1" fill="#fbfdfc" d="M 148.5,202.5 C 153.232,202.378 157.898,202.878 162.5,204C 164.651,204.265 166.318,205.265 167.5,207C 164.172,211.316 160.838,215.649 157.5,220C 147.475,220.994 145.142,225.661 150.5,234C 159.572,236.594 163.239,233.261 161.5,224C 165.286,219.592 168.953,215.092 172.5,210.5C 179.286,216.693 181.786,224.359 180,233.5C 175.641,248.932 165.474,255.765 149.5,254C 134.884,249.607 128.05,239.774 129,224.5C 131.479,213.525 137.979,206.192 148.5,202.5 Z"/></g>
<g><path style="opacity:1" fill="#9ed5b7" d="M 704.5,218.5 C 706.948,219.473 709.615,219.806 712.5,219.5C 709.36,220.641 706.027,220.808 702.5,220C 703.044,219.283 703.711,218.783 704.5,218.5 Z"/></g>
<g><path style="opacity:1" fill="#039445" d="M 564.5,445.5 C 571.687,445.175 578.687,445.509 585.5,446.5C 576.99,484.555 568.156,522.555 559,560.5C 555.797,565.916 551.464,566.916 546,563.5C 536.89,539.526 526.224,516.193 514,493.5C 509.82,489.208 506.487,489.874 504,495.5C 494.195,519.914 484.195,544.247 474,568.5C 469.194,574.728 462.86,577.061 455,575.5C 410.881,574.507 367.714,567.674 325.5,555C 288.644,543.739 255.977,525.405 227.5,500C 216.081,488.92 206.581,476.42 199,462.5C 198.049,456.352 199.716,451.019 204,446.5C 230.371,413.786 261.871,387.286 298.5,367C 364.753,331.433 435.419,310.433 510.5,304C 542.428,300.791 574.428,299.791 606.5,301C 615.177,305.19 618.343,312.024 616,321.5C 608.179,353.451 600.679,385.451 593.5,417.5C 548.846,403.279 503.179,393.779 456.5,389C 404.965,384.313 354.632,389.98 305.5,406C 281.684,414.903 259.684,426.903 239.5,442C 233.096,451.675 234.43,460.008 243.5,467C 321.07,515.835 400.07,518.169 480.5,474C 494.106,465.392 507.44,456.392 520.5,447C 535.108,445.568 549.775,445.068 564.5,445.5 Z"/></g>
<g><path style="opacity:1" fill="#72c08f" d="M 846.5,321.5 C 847.924,323.515 848.59,325.848 848.5,328.5C 847.076,326.485 846.41,324.152 846.5,321.5 Z"/></g>
<g><path style="opacity:1" fill="#089546" d="M 282.5,427.5 C 297.878,426.293 304.711,433.293 303,448.5C 297.638,459.431 289.472,462.265 278.5,457C 268.084,445.486 269.418,435.653 282.5,427.5 Z"/></g>
<g><path style="opacity:1" fill="#68bf8f" d="M 564.5,445.5 C 571.677,444.181 579.01,444.181 586.5,445.5C 586.376,446.107 586.043,446.44 585.5,446.5C 578.687,445.509 571.687,445.175 564.5,445.5 Z"/></g>
<g><path style="opacity:1" fill="#fcfdfc" d="M 173.5,633.5 C 178.186,637.186 182.186,641.52 185.5,646.5C 181.935,651.234 177.601,655.067 172.5,658C 179.318,657.464 186.151,656.631 193,655.5C 196.812,658.982 200.312,662.815 203.5,667C 192.668,678.497 181.168,689.33 169,699.5C 165.201,694.699 161.034,690.199 156.5,686C 160.88,681.952 165.546,678.285 170.5,675C 163.97,674.794 157.47,675.294 151,676.5C 145.947,673.786 141.78,669.953 138.5,665C 150.362,654.634 162.028,644.134 173.5,633.5 Z"/></g>
<g><path style="opacity:1" fill="#fcfdfc" d="M 674.5,641.5 C 687.058,651.387 698.725,662.387 709.5,674.5C 705.845,679.486 701.845,684.153 697.5,688.5C 692.482,684.315 687.982,679.649 684,674.5C 684.588,678.79 684.922,683.123 685,687.5C 683.649,689.019 682.149,690.352 680.5,691.5C 676.89,690.342 673.223,689.842 669.5,690C 675.272,693.603 680.272,698.103 684.5,703.5C 680.515,707.985 676.349,712.318 672,716.5C 660.349,706.015 649.182,695.015 638.5,683.5C 641.608,678.888 645.275,674.722 649.5,671C 655.196,670.83 660.862,670.33 666.5,669.5C 665.075,664.218 664.242,658.885 664,653.5C 668.104,649.905 671.604,645.905 674.5,641.5 Z"/></g>
<g><path style="opacity:1" fill="#fbfdfc" d="M 218.5,732.5 C 217.833,734.833 217.167,737.167 216.5,739.5C 211.829,735.399 206.996,731.399 202,727.5C 201.737,722.149 201.737,716.816 202,711.5C 199.099,714.312 196.432,717.312 194,720.5C 188.894,717.028 184.06,713.194 179.5,709C 189.047,697.788 198.214,686.288 207,674.5C 208.133,672.789 209.633,672.289 211.5,673C 215.673,676.343 219.673,679.843 223.5,683.5C 221.025,687.142 218.358,690.642 215.5,694C 219.165,693.016 222.832,691.683 226.5,690C 228.5,689.333 230.5,689.333 232.5,690C 236.833,693.667 241.167,697.333 245.5,701C 236.906,703.975 228.406,707.142 220,710.5C 219.058,717.806 218.558,725.14 218.5,732.5 Z"/></g>
<g><path style="opacity:1" fill="#fcfdfc" d="M 623.5,694.5 C 634.676,694.337 643.176,699.004 649,708.5C 655.244,729.942 647.244,742.276 625,745.5C 620.543,745.344 616.376,744.178 612.5,742C 609.963,739.128 607.13,736.628 604,734.5C 596.39,714.279 602.89,700.946 623.5,694.5 Z"/></g>
<g><path style="opacity:1" fill="#139749" d="M 621.5,711.5 C 628.603,710.202 632.603,713.035 633.5,720C 633.379,724.788 630.879,727.288 626,727.5C 619.464,725.592 617.13,721.259 619,714.5C 620.045,713.627 620.878,712.627 621.5,711.5 Z"/></g>
<g><path style="opacity:1" fill="#fcfdfc" d="M 251.5,712.5 C 270.047,711.574 281.047,720.074 284.5,738C 281.731,757.083 270.731,765.083 251.5,762C 236.247,755.27 230.747,743.77 235,727.5C 238.822,720.504 244.322,715.504 251.5,712.5 Z"/></g>
<g><path style="opacity:1" fill="#fcfdfd" d="M 582.5,719.5 C 583.675,719.281 584.675,719.614 585.5,720.5C 589.683,729.531 593.85,738.531 598,747.5C 599.43,747.306 600.93,747.306 602.5,747.5C 605.636,753.605 608.636,759.772 611.5,766C 606.36,769.407 601.027,772.573 595.5,775.5C 594.002,773.841 592.502,772.175 591,770.5C 585.324,772.326 580.157,774.992 575.5,778.5C 576.373,780.413 577.373,782.247 578.5,784C 573.287,786.773 567.954,789.273 562.5,791.5C 559.109,785.886 556.109,780.053 553.5,774C 555.622,771.755 556.956,769.088 557.5,766C 554.465,757.064 551.132,748.23 547.5,739.5C 547.977,738.522 548.643,737.689 549.5,737C 560.878,731.647 571.878,725.814 582.5,719.5 Z"/></g>
<g><path style="opacity:1" fill="#12974a" d="M 255.5,729.5 C 263.164,728.666 266.664,732 266,739.5C 261.778,746.628 256.778,747.294 251,741.5C 250.269,736.709 251.769,732.709 255.5,729.5 Z"/></g>
<g><path style="opacity:1" fill="#fbfdfc" d="M 297.5,732.5 C 307.522,735.451 317.189,739.285 326.5,744C 333.573,750.121 335.406,757.621 332,766.5C 328.921,773.791 323.421,777.124 315.5,776.5C 311.67,776.633 308.004,775.966 304.5,774.5C 302.207,777.364 300.874,780.698 300.5,784.5C 294.38,783.237 288.38,781.571 282.5,779.5C 287.302,763.761 292.302,748.094 297.5,732.5 Z"/></g>
<g><path style="opacity:1" fill="#6ec192" d="M 218.5,732.5 C 218.813,735.247 218.48,737.914 217.5,740.5C 216.893,740.376 216.56,740.043 216.5,739.5C 217.167,737.167 217.833,734.833 218.5,732.5 Z"/></g>
<g><path style="opacity:1" fill="#f6fbf8" d="M 494.5,738.5 C 496.167,738.5 497.833,738.5 499.5,738.5C 500.021,742.481 500.354,746.481 500.5,750.5C 493.401,751.32 486.401,752.653 479.5,754.5C 477.492,750.806 476.492,746.806 476.5,742.5C 482.7,741.529 488.7,740.196 494.5,738.5 Z"/></g>
<g><path style="opacity:1" fill="#229b51" d="M 572.5,740.5 C 573.376,740.369 574.043,740.702 574.5,741.5C 576.433,746.532 578.766,751.365 581.5,756C 579.182,757.993 576.516,759.159 573.5,759.5C 572.999,753.825 571.333,748.491 568.5,743.5C 569.901,742.479 571.235,741.479 572.5,740.5 Z"/></g>
<g><path style="opacity:1" fill="#fbfdfc" d="M 344.5,750.5 C 350.436,751.826 356.436,752.826 362.5,753.5C 361.628,758.526 360.628,763.526 359.5,768.5C 362.193,770.27 365.193,770.937 368.5,770.5C 368.859,765.373 369.859,760.373 371.5,755.5C 377.176,756.418 382.843,757.418 388.5,758.5C 385.992,774.197 383.326,789.863 380.5,805.5C 374.517,805.197 368.684,804.197 363,802.5C 363.645,796.892 364.145,791.225 364.5,785.5C 361.794,785.425 359.127,785.092 356.5,784.5C 355.815,789.756 354.815,794.923 353.5,800C 349.473,800.331 345.473,799.998 341.5,799C 338.992,798.885 336.992,797.885 335.5,796C 338.343,780.768 341.343,765.601 344.5,750.5 Z"/></g>
<g><path style="opacity:1" fill="#fbfdfc" d="M 507.5,750.5 C 508.833,750.5 510.167,750.5 511.5,750.5C 514.314,766.067 517.314,781.567 520.5,797C 514.24,798.701 507.907,799.868 501.5,800.5C 500.924,794.515 500.424,788.515 500,782.5C 496.978,789.378 493.812,796.211 490.5,803C 485.311,804.778 480.144,805.611 475,805.5C 472.488,790.773 469.655,776.106 466.5,761.5C 466.608,760.558 466.941,759.725 467.5,759C 473.09,757.581 478.757,756.748 484.5,756.5C 485.858,762.072 486.691,767.738 487,773.5C 489.833,767.167 492.667,760.833 495.5,754.5C 499.443,752.786 503.443,751.453 507.5,750.5 Z"/></g>
<g><path style="opacity:1" fill="#229c52" d="M 310.5,752.5 C 313.822,752.489 315.489,754.155 315.5,757.5C 315.291,758.994 314.624,760.161 313.5,761C 311.272,761.82 309.272,761.487 307.5,760C 308.642,757.55 309.642,755.05 310.5,752.5 Z"/></g>
<g><path style="opacity:1" fill="#cce9d9" d="M 395.5,761.5 C 401.645,760.51 407.978,760.177 414.5,760.5C 414.5,764.5 414.5,768.5 414.5,772.5C 413.518,769.038 413.185,765.371 413.5,761.5C 407.5,761.5 401.5,761.5 395.5,761.5 Z"/></g>
<g><path style="opacity:1" fill="#fefefe" d="M 395.5,761.5 C 401.5,761.5 407.5,761.5 413.5,761.5C 413.185,765.371 413.518,769.038 414.5,772.5C 433.6,772.085 441.1,781.085 437,799.5C 431.154,805.418 423.987,808.252 415.5,808C 408.842,808.5 402.175,808.666 395.5,808.5C 395.5,792.833 395.5,777.167 395.5,761.5 Z"/></g>
<g><path style="opacity:1" fill="#fbfdfc" d="M 441.5,760.5 C 447.833,760.5 454.167,760.5 460.5,760.5C 460.5,776.5 460.5,792.5 460.5,808.5C 454.167,808.5 447.833,808.5 441.5,808.5C 441.5,792.5 441.5,776.5 441.5,760.5 Z"/></g>
<g><path style="opacity:1" fill="#5ab884" d="M 418.5,786.5 C 417.167,786.5 415.833,786.5 414.5,786.5C 414.5,788.5 414.5,790.5 414.5,792.5C 415.833,792.5 417.167,792.5 418.5,792.5C 417.081,793.451 415.415,793.784 413.5,793.5C 413.5,790.833 413.5,788.167 413.5,785.5C 415.415,785.216 417.081,785.549 418.5,786.5 Z"/></g>
<g><path style="opacity:1" fill="#0d9649" d="M 418.5,786.5 C 421.167,788.5 421.167,790.5 418.5,792.5C 417.167,792.5 415.833,792.5 414.5,792.5C 414.5,790.5 414.5,788.5 414.5,786.5C 415.833,786.5 417.167,786.5 418.5,786.5 Z"/></g>
<g><path style="opacity:1" fill="#8ccca5" d="M 186.5,786.5 C 188.027,786.427 189.027,787.094 189.5,788.5C 187.973,788.573 186.973,787.906 186.5,786.5 Z"/></g>
</svg>
